# AST/ASF file generated using VICON BodyLanguage
# -----------------------------------------------
:version 1.10
:name VICON
:units
  mass 1.0
  length 0.45
  angle deg
:documentation
   .ast/.asf automatically generated from VICON data using
   VICON BodyBuilder and BodyLanguage model FoxedUp or BRILLIANT.MOD
:root
   order TX TY TZ RX RY RZ
   axis XYZ
   position 0 0 0  
   orientation 0 0 0 
:bonedata
  begin
     id 1 
     name lhipjoint
     direction 0.561145 -0.797705 0.220866 
     length 2.46425 
     axis 0 0 0  XYZ
  end
  begin
     id 2 
     name lfemur
     direction 0.34202 -0.939693 0  
     length 7.95556  
     axis 0 0 20  XYZ
    dof rx ry rz
    limits (-160.0 20.0)
           (-70.0 70.0)
           (-60.0 70.0)
  end
  begin
     id 3 
     name ltibia
     direction 0.34202 -0.939693 0   
     length 7.9832   
     axis 0 0 20   XYZ
    dof rx
    limits (-10.0 170.0)
  end
  begin
     id 4 
     name lfoot
     direction 0.0723927 -0.198897 0.977343   
     length 2.23085   
     axis -90 7.62852e-016 20   XYZ
    dof rx rz
    limits (-45.0 90.0)
           (-70.0 20.0)
  end
  begin
     id 5 
     name ltoes
     direction 1.53826e-011 -4.21988e-011 1   
     length 1.12127   
     axis -90 7.62852e-016 20   XYZ
    dof rx
    limits (-90.0 20.0)
  end
  begin
     id 6 
     name rhipjoint
     direction -0.610499 -0.763299 0.21134   
     length 2.57533  
     axis 0 0 0  XYZ 
  end
  begin
     id 7 
     name rfemur
     direction -0.34202 -0.939693 0   
     length 8.65257   
     axis 0 0 -20   XYZ
    dof rx ry rz
    limits (-160.0 20.0)
           (-70.0 70.0)
           (-70.0 60.0)
  end
  begin
     id 8 
     name rtibia
     direction -0.342021 -0.939692 0   
     length 7.37807   
     axis 0 0 -20   XYZ
    dof rx
    limits (-10.0 170.0)
 end
 begin
     id 9 
     name rfoot
     direction -0.0239304 -0.0543852 0.998233   
     length 1.87018  
     axis -90 -7.62852e-016 -20   XYZ
    dof rx rz
    limits (-45.0 90.0)
           (-20.0 70.0)
  end
  begin
     id 10 
     name rtoes
     direction -1.53584e-011 -4.2242e-011 1   
     length 0.951568   
     axis -90 -7.62852e-016 -20   XYZ
    dof rx
    limits (-90.0 20.0)
  end
  begin
     id 11 
     name lowerback
     direction 0.00322089 0.999033 0.0438587   
     length 2.07568   
     axis 0 0 0   XYZ
    dof rx ry rz
    limits (-20.0 45.0)
           (-30.0 30.0)
           (-30.0 30.0)
  end
  begin
     id 12 
     name upperback
     direction -0.00321932 0.999732 -0.0229403   
     length 2.06253   
     axis 0 0 0   XYZ
    dof rx ry rz
    limits (-20.0 45.0)
           (-30.0 30.0)
           (-30.0 30.0)
  end
  begin
     id 13 
     name thorax
     direction -0.00537537 0.998955 -0.0453918   
     length 2.06975   
     axis 0 0 0   XYZ
    dof rx ry rz
    limits (-20.0 45.0)
           (-30.0 30.0)
           (-30.0 30.0)
  end
  begin
     id 14 
     name lowerneck
     direction -0.00013604 0.994111 0.108363   
     length 1.50836   
     axis 0 0 0   XYZ
    dof rx ry rz
    limits (-20.0 45.0)
           (-30.0 30.0)
           (-30.0 30.0)
  end
  begin
     id 15 
     name upperneck
     direction 0.0397262 0.983859 -0.174482   
     length 1.53037   
     axis 0 0 0   XYZ
    dof rx ry rz
    limits (-20.0 45.0)
           (-30.0 30.0)
           (-30.0 30.0)
  end
  begin
     id 16
     name head
     direction 0.0109991 0.997082 -0.0755378  
     length 1.56928  
     axis 0 0 0   XYZ
    dof rx ry rz
    limits (-20.0 45.0)
           (-30.0 30.0)
           (-30.0 30.0)
  end
  begin
     id 17 
     name lclavicle
     direction 0.964749 0.254 -0.068874  
     length 3.26503  
     axis 0 0 0   XYZ
    dof ry rz
    limits (-20.0 10.0)
           (0.0 20.0)
  end
  begin
     id 18 
     name lhumerus
     direction 1 -4.48941e-011 -2.05079e-027   
     length 5.68236   
     axis 180 -30 -90   XYZ
    dof rx ry rz
    limits (-60.0 90.0)
           (-90.0 90.0)
           (-90.0 90.0)
  end
  begin
     id 19
     name lradius
     direction 1 -4.48956e-011 6.2882e-027   
     length 3.17112   
     axis 180 -30 -90   XYZ
    dof rx
    limits (-10.0 170.0)
  end
  begin
     id 20
     name lwrist
     direction 1 -4.49014e-011 1.73219e-026   
     length 1.58556   
     axis -1.04724e-014 90 90   XYZ
    dof ry
    limits (-180.0 0.0)
 end
  begin
     id 21 
     name lhand
     direction 1 -4.49312e-011 3.46438e-026   
     length 0.632691   
     axis -2.21057e-014 90 90   XYZ
    dof rx rz
    limits (-90.0 90.0)
           (-45.0 45.0)
  end
  begin
     id 22 
     name lfingers
     direction 1 -4.48894e-011 6.92876e-026   
     length 0.510091   
     axis -4.42114e-014 90 90   XYZ
    dof rx
    limits (0.0 90.0)
  end
  begin
     id 23
     name lthumb
     direction 0.707107 -6.34705e-011 0.707107   
     length 0.732392   
     axis -90 45 2.85299e-015   XYZ
    dof rx rz
    limits (-45.0 45.0)
           (-45.0 45.0)
  end
  begin
     id 24 
     name rclavicle
     direction -0.954374 0.280496 -0.102435   
     length 3.25419  
     axis 0 0 0   XYZ 
    dof ry rz
    limits (-10.0 20.0)
           (-20.0 0.0)
  end
  begin
     id 25 
     name rhumerus
     direction -1 -4.48994e-011 -1.07204e-017  
     length 5.8712   
     axis 180 30 90   XYZ
    dof rx ry rz
    limits (-90.0 60.0)
           (-90.0 90.0)
           (-90.0 90.0)
  end
  begin
     id 26 
     name rradius
     direction -1 -4.48972e-011 5.89292e-027   
     length 3.37589   
     axis 180 30 90   XYZ
    dof rx
    limits (-10.0 170.0)
  end
  begin
     id 27 
     name rwrist
     direction -1 -4.48942e-011 1.73219e-026   
     length 1.68794   
     axis -1.04724e-014 -90 -90   XYZ
    dof ry
    limits (-180.0 0.0)
  end
  begin
     id 28
     name rhand
     direction -1 -4.48514e-011 3.46438e-026   
     length 0.603257   
     axis -2.21057e-014 -90 -90   XYZ
    dof rx rz
    limits (-90.0 90.0)
           (-45.0 45.0)
  end
  begin
     id 29
     name rfingers
     direction -1 -4.50028e-011 6.92876e-026   
     length 0.486362   
     axis -4.42114e-014 -90 -90   XYZ
    dof rx
    limits (0.0 90.0)
  end
  begin
     id 30
     name rthumb
     direction -0.707107 -6.34926e-011 0.707107   
     length 0.698321   
     axis -90 -45 -2.85299e-015   XYZ
    dof rx rz
    limits (-45.0 45.0)
           (-45.0 45.0)
  end
:hierarchy
  begin
    root lhipjoint rhipjoint lowerback
    lhipjoint lfemur
    lfemur ltibia
    ltibia lfoot
    lfoot ltoes
    rhipjoint rfemur
    rfemur rtibia
    rtibia rfoot
    rfoot rtoes
    lowerback upperback
    upperback thorax
    thorax lowerneck lclavicle rclavicle
    lowerneck upperneck
    upperneck head
    lclavicle lhumerus
    lhumerus lradius
    lradius lwrist
    lwrist lhand lthumb
    lhand lfingers
    rclavicle rhumerus
    rhumerus rradius
    rradius rwrist
    rwrist rhand rthumb
    rhand rfingers
  end

#!OML:ASF I:\Segmentation\Patient Classification 1\Patient 1\Session 1\Patient1.ASF
:FULLY-SPECIFIED
:DEGREES
2398
root 20.3269 15.8161 -0.439968 -557.386 -91.7327 187.984
lowerback 12.7335 1.38456 -0.637112
upperback 10.6158 1.11719 1.68029
thorax 4.0003 0.194922 1.99637
lowerneck -14.205 -4.06462 -3.01492
upperneck 4.58875 -5.48378 6.49099
head 3.93157 -2.43591 2.06712
rclavicle 1.96797e-014 2.18663e-014
rhumerus 8.30091 24.4067 -89.453
rradius 99.6218
rwrist -47.0941
rhand -36.1315 3.74841
rfingers 7.12502
rthumb -9.23669 -26.0293
lclavicle 1.96797e-014 2.18663e-014
lhumerus 23.0316 -29.5609 74.0092
lradius 98.773
lwrist 7.49246
lhand -21.8252 26.8414
lfingers 7.12502
lthumb 4.57757 56.772
rfemur -39.5655 -8.04472 17.437
rtibia 60.8637
rfoot -3.48186 2.9507
rtoes 45.5536
lfemur -41.3388 10.4424 -19.1707
ltibia 63.8277
lfoot -14.5232 4.88993
ltoes 0.330048
2399
root 20.3277 15.8165 -0.440533 -557.054 -91.7571 187.608
lowerback 12.7204 1.40258 -0.433745
upperback 10.664 1.15902 1.51326
thorax 4.06471 0.232662 1.70402
lowerneck -14.24 -4.0732 -2.80009
upperneck 4.53218 -5.53557 6.51923
head 3.91762 -2.45727 2.03713
rclavicle 9.54166e-015 -2.78299e-015
rhumerus 8.17502 23.5081 -89.5535
rradius 99.2918
rwrist -47.3198
rhand -36.4356 3.4509
rfingers 7.12502
rthumb -9.53009 -26.3136
lclavicle 9.54166e-015 -2.78299e-015
lhumerus 23.0292 -29.194 73.9241
lradius 99.3553
lwrist 7.92058
lhand -22.631 27.0657
lfingers 7.12502
lthumb 3.79947 57.0115
rfemur -39.5109 -8.04216 17.4295
rtibia 60.8609
rfoot -3.52293 2.98591
rtoes 45.5879
lfemur -41.2916 10.4276 -19.1596
ltibia 63.8255
lfoot -14.5215 4.89958
ltoes 0.237825
2400
root 20.3286 15.8169 -0.441224 -556.118 -91.7804 186.625
lowerback 12.7189 1.41172 -0.223498
upperback 10.708 1.18928 1.35845
thorax 4.1196 0.264788 1.42171
lowerneck -14.308 -4.07803 -2.57191
upperneck 4.53604 -5.58335 6.50611
head 3.92542 -2.47664 1.9917
rclavicle -8.74653e-015 2.78299e-015
rhumerus 8.07146 22.6622 -89.66
rradius 98.9807
rwrist -47.5699
rhand -36.8255 3.21231
rfingers 7.12502
rthumb -9.90633 -26.5346
lclavicle -8.74653e-015 2.78299e-015
lhumerus 23.0492 -28.7675 73.8695
lradius 99.8803
lwrist 8.35404
lhand -23.4755 27.2731
lfingers 7.12502
lthumb 2.98392 57.2319
rfemur -39.4515 -8.0373 17.4433
rtibia 60.8526
rfoot -3.55878 3.02319
rtoes 45.6374
lfemur -41.2454 10.416 -19.1277
ltibia 63.8243
lfoot -14.5155 4.89427
ltoes 0.232233
2401
root 20.3297 15.8167 -0.441967 -554.634 -91.8043 185.102
lowerback 12.7281 1.41885 -0.0787929
upperback 10.7331 1.21107 1.27228
thorax 4.1463 0.286865 1.24857
lowerneck -14.3725 -4.08039 -2.39966
upperneck 4.58687 -5.61479 6.44442
head 3.94603 -2.49018 1.94132
rclavicle -1.3418e-014 2.38542e-015
rhumerus 7.98125 21.9075 -89.7062
rradius 98.6669
rwrist -47.7036
rhand -37.2192 3.0553
rfingers 7.12502
rthumb -10.2861 -26.6732
lclavicle -1.3418e-014 2.38542e-015
lhumerus 23.0292 -28.2615 73.9622
lradius 100.326
lwrist 8.70632
lhand -24.2152 27.5037
lfingers 7.12502
lthumb 2.26951 57.4714
rfemur -39.4 -8.03268 17.4783
rtibia 60.8408
rfoot -3.59233 3.05009
rtoes 45.6673
lfemur -41.2145 10.4051 -19.0785
ltibia 63.8272
lfoot -14.4975 4.87588
ltoes 0.314945
2402
root 20.3312 15.8161 -0.44274 -553.042 -91.8316 183.485
lowerback 12.7374 1.42277 -0.00753882
upperback 10.7412 1.22232 1.24955
thorax 4.15208 0.297421 1.1838
lowerneck -14.411 -4.07961 -2.30801
upperneck 4.65089 -5.62546 6.36204
head 3.96699 -2.4959 1.89946
rclavicle 5.76476e-015 -1.59028e-015
rhumerus 7.90848 21.2393 -89.7118
rradius 98.3452
rwrist -47.7255
rhand -37.5867 2.99745
rfingers 7.12502
rthumb -10.6407 -26.7131
lclavicle 5.76476e-015 -1.59028e-015
lhumerus 22.943 -27.6964 74.1958
lradius 100.701
lwrist 8.94569
lhand -24.8016 27.7864
lfingers 7.12502
lthumb 1.70323 57.7593
rfemur -39.3642 -8.02854 17.5194
rtibia 60.8279
rfoot -3.6265 3.06015
rtoes 45.6534
lfemur -41.2026 10.3916 -19.0281
ltibia 63.8319
lfoot -14.4656 4.85223
ltoes 0.425691
2403
root 20.3331 15.8155 -0.443365 -551.835 -91.866 182.264
lowerback 12.7409 1.42073 0.0194619
upperback 10.7427 1.22184 1.25555
thorax 4.15233 0.298576 1.17495
lowerneck -14.4248 -4.07934 -2.29075
upperneck 4.70428 -5.62389 6.29576
head 3.98277 -2.49667 1.87588
rclavicle -5.96354e-016 -3.97569e-015
rhumerus 7.85538 20.6168 -89.7316
rradius 98.0249
rwrist -47.6764
rhand -37.9621 3.01847
rfingers 7.12502
rthumb -11.0027 -26.6732
lclavicle -5.96354e-016 -3.97569e-015
lhumerus 22.8041 -27.1223 74.4977
lradius 101.032
lwrist 9.09586
lhand -25.2967 28.1405
lfingers 7.12502
lthumb 1.22496 58.1167
rfemur -39.3419 -8.02475 17.546
rtibia 60.8151
rfoot -3.66273 3.05897
rtoes 45.6059
lfemur -41.2017 10.3696 -18.9944
ltibia 63.8325
lfoot -14.4296 4.83209
ltoes 0.483725
2404
root 20.3355 15.8153 -0.443631 -551.336 -91.9037 181.75
lowerback 12.7482 1.41346 0.02777
upperback 10.7432 1.21286 1.26094
thorax 4.14917 0.294356 1.17664
lowerneck -14.4151 -4.08259 -2.32472
upperneck 4.73853 -5.6198 6.2617
head 3.9913 -2.49629 1.87107
rclavicle 1.26228e-014 -2.38542e-015
rhumerus 7.81584 20.0167 -89.8098
rradius 97.7387
rwrist -47.6531
rhand -38.3803 3.05625
rfingers 7.12502
rthumb -11.406 -26.6135
lclavicle 1.26228e-014 -2.38542e-015
lhumerus 22.6392 -26.5921 74.8052
lradius 101.33
lwrist 9.19265
lhand -25.8058 28.5592
lfingers 7.12502
lthumb 0.733296 58.5377
rfemur -39.3197 -8.01366 17.5436
rtibia 60.8025
rfoot -3.70678 3.05874
rtoes 45.5463
lfemur -41.1946 10.343 -18.9868
ltibia 63.8249
lfoot -14.4018 4.81919
ltoes 0.457093
2405
root 20.3383 15.8153 -0.443521 -551.622 -91.9321 182.01
lowerback 12.7699 1.403 0.0194939
upperback 10.7424 1.19825 1.25708
thorax 4.13687 0.286591 1.17822
lowerneck -14.3788 -4.08556 -2.3861
upperneck 4.75303 -5.61155 6.24845
head 3.99078 -2.49416 1.87793
rclavicle 1.0138e-014 1.31198e-014
rhumerus 7.79198 19.4683 -89.9592
rradius 97.5187
rwrist -47.769
rhand -38.8213 3.07674
rfingers 7.12502
rthumb -11.8313 -26.569
lclavicle 1.0138e-014 1.31198e-014
lhumerus 22.4679 -26.1332 75.0943
lradius 101.581
lwrist 9.25133
lhand -26.3798 28.9981
lfingers 7.12502
lthumb 0.178878 58.9778
rfemur -39.2862 -7.98346 17.5108
rtibia 60.7903
rfoot -3.75595 3.06864
rtoes 45.4973
lfemur -41.1673 10.3263 -19.004
ltibia 63.8091
lfoot -14.3874 4.80835
ltoes 0.422947
2406
root 20.341 15.8156 -0.443123 -552.477 -91.9399 182.827
lowerback 12.8058 1.3909 -0.00697995
upperback 10.7389 1.17988 1.24807
thorax 4.11375 0.275987 1.18472
lowerneck -14.3273 -4.08192 -2.4544
upperneck 4.76109 -5.59293 6.23417
head 3.98557 -2.4875 1.88673
rclavicle 1.2921e-014 8.74653e-015
rhumerus 7.80548 19.0103 -90.164
rradius 97.3619
rwrist -48.0119
rhand -39.2385 3.12521
rfingers 7.12502
rthumb -12.2336 -26.497
lclavicle 1.2921e-014 8.74653e-015
lhumerus 22.3047 -25.756 75.3657
lradius 101.759
lwrist 9.27161
lhand -26.9753 29.3856
lfingers 7.12502
lthumb -0.396199 59.3649
rfemur -39.2419 -7.93066 17.4605
rtibia 60.779
rfoot -3.79575 3.08851
rtoes 45.4774
lfemur -41.1207 10.3295 -19.0347
ltibia 63.789
lfoot -14.3877 4.7944
ltoes 0.478018
